<?xml version="1.0" encoding="utf-8"?>
<!-- Generator: Adobe Illustrator 16.0.0, SVG Export Plug-In . SVG Version: 6.00 Build 0)  -->
<!DOCTYPE svg PUBLIC "-//W3C//DTD SVG 1.1//EN" "http://www.w3.org/Graphics/SVG/1.1/DTD/svg11.dtd">
<svg version="1.1" id="Calque_1" xmlns="http://www.w3.org/2000/svg" xmlns:xlink="http://www.w3.org/1999/xlink" x="0px" y="0px"
	 width="1920px" height="1120px" viewBox="0 0 960 560" enable-background="new 0 0 960 560" xml:space="preserve">
<g>
	<path d="M263.945,225.615c-5.878,8.335-8.816,18.886-8.816,31.652c0,2.988,0.336,7.251,1.012,12.791
		c0.674,5.445,2.746,11.105,6.215,16.982c-9.347-7.323-14.02-17.295-14.02-29.918c0-7.756,1.565-14.284,4.697-19.584
		C256.116,232.336,259.754,228.361,263.945,225.615z M311.279,255.389v36.566c-7.66,3.132-14.261,4.697-19.801,4.697
		c-9.347,0-16.886-3.083-22.619-9.25c-2.843-3.131-4.975-7.082-6.396-11.852c-1.421-4.77-2.132-10.309-2.132-16.621
		c0-27.557,11.538-41.336,34.615-41.336c8.479,0,16.693,1.421,24.643,4.264c0,4.48,0.072,7.925,0.217,10.334
		c0.145,2.072,0.217,4.601,0.217,7.588h-1.445c-1.156-5.203-3.878-9.297-8.166-12.285c-4.384-2.987-9.611-4.48-15.682-4.48
		c-18.742,0-28.111,11.25-28.111,33.748c0,22.836,7.973,34.254,23.92,34.254c6.359,0,10.864-1.518,13.514-4.553
		c0.867-1.59,1.301-4.528,1.301-8.816v-9.756c0-6.985-2.554-11.008-7.66-12.068v-1.301c1.782,0.097,4.264,0.242,7.443,0.434
		C307.594,255.148,309.641,255.292,311.279,255.389z M316.627,290.221v-34.832c2.313-0.096,4.432-0.241,6.359-0.434
		c3.131-0.289,5.178-0.434,6.143-0.434v1.301c-4.384,1.783-6.576,6.504-6.576,14.164v18.355c-0.337,0.049-1.277,0.338-2.818,0.867
		c-0.771,0.193-1.398,0.386-1.879,0.578C317.374,289.98,316.963,290.125,316.627,290.221z"/>
	<path d="M345.605,219.617l10.189,9.467l-3.469,3.613l-10.117-9.395L345.605,219.617z M342.787,277.213v-33.531h5.42v36.061
		c0,5.3,0.53,9.082,1.59,11.346c1.012,2.361,2.698,4.047,5.059,5.059h-2.24c-3.228-1.445-5.685-3.469-7.371-6.07
		C343.606,287.523,342.787,283.235,342.787,277.213z M352.326,212.391l10.117,9.467l-3.396,3.613l-10.189-9.395L352.326,212.391z
		 M352.977,278.441v-34.76h5.42v35.844c0,8.769,3.059,13.152,9.178,13.152c1.975,0,3.588-0.385,4.842-1.156v1.59
		c-2.457,2.023-5.156,3.035-8.094,3.035c-2.699,0-4.962-0.819-6.793-2.457c-1.976-1.686-3.205-3.541-3.686-5.564
		C353.266,286.102,352.977,282.874,352.977,278.441z"/>
	<path d="M390.844,243.682v51.525c-7.082,0.096-11.876,0.385-14.381,0.867v-1.301c3.902-1.396,6.407-3.107,7.516-5.131
		c1.156-2.119,1.734-5.901,1.734-11.346v-18.645c0-5.155-0.675-8.84-2.023-11.057c-1.398-2.264-3.806-3.758-7.227-4.48v-1.229
		C377.956,243.176,382.75,243.441,390.844,243.682z M396.047,295.207v-51.525c1.59-0.047,3.516-0.313,5.781-0.795
		c-0.289,1.879-0.482,5.107-0.578,9.684c5.059-6.456,8.672-9.684,10.84-9.684c1.252,0,3.565,0.699,6.938,2.096
		c2.938,1.253,4.938,1.879,5.998,1.879c1.397,0,2.963-0.987,4.697-2.963c0.145-0.145,0.241-0.253,0.289-0.325
		c0.047-0.072,0.264-0.3,0.65-0.687l1.662,0.795c-2.313,5.203-5.3,7.805-8.961,7.805c-1.253,0-3.686-0.795-7.299-2.385
		c-1.494-0.674-2.626-1.012-3.396-1.012c-2.313,0-4.77,1.494-7.371,4.48c1.252-0.385,2.313-0.578,3.18-0.578
		c1.348,0,3.83,0.82,7.443,2.457c2.602,1.109,4.48,1.662,5.637,1.662c0.77,0,1.565-0.241,2.385-0.723
		c-2.361,3.035-4.65,4.553-6.865,4.553c-1.012,0-2.674-0.553-4.986-1.662c-3.324-1.637-5.637-2.457-6.938-2.457
		s-2.602,0.699-3.902,2.096v21.969c0,4.914,0.795,8.504,2.385,10.768c1.59,2.265,4.143,3.638,7.66,4.119v1.301
		C405.658,295.496,400.575,295.207,396.047,295.207z"/>
	<path d="M445.477,247.295c-4.48,4.962-6.721,12.285-6.721,21.969s2.24,17.104,6.721,22.258
		c-8.335-4.721-12.502-12.237-12.502-22.547C432.975,258.81,437.141,251.583,445.477,247.295z M443.67,269.986
		c0-9.346,1.903-16.307,5.709-20.885c3.854-4.625,9.153-6.938,15.898-6.938c6.262,0,11.442,2.048,15.537,6.143
		c4.094,4.095,6.143,10.865,6.143,20.307c0,10.359-2.193,17.585-6.576,21.68c-4.433,4.144-9.539,6.215-15.32,6.215
		c-5.926,0-10.96-2.168-15.104-6.504C445.766,285.717,443.67,279.044,443.67,269.986z M449.74,268.83
		c0,8.816,1.348,14.791,4.047,17.922c2.698,3.132,6.528,4.697,11.49,4.697c4.672,0,8.455-1.638,11.346-4.914
		c2.842-3.275,4.264-9.25,4.264-17.922c0-14.598-5.203-21.896-15.609-21.896C454.918,246.717,449.74,254.088,449.74,268.83z
		 M485.223,290.727c4.432-4.962,6.648-11.852,6.648-20.668c0-4.77-0.531-9.25-1.59-13.441c-1.109-4.288-2.795-7.418-5.059-9.395
		c8.43,4.673,12.646,11.852,12.646,21.535C497.869,278.056,493.652,285.379,485.223,290.727z"/>
	<path d="M520.055,243.682v51.525c-4.963,0.24-9.275,0.529-12.936,0.867v-1.301c2.168-0.723,3.975-2.023,5.42-3.902
		s2.168-6.383,2.168-13.514V259.58c0-4.817-0.555-8.383-1.662-10.695c-1.156-2.168-3.494-3.758-7.01-4.77v-1.229
		C508.299,243.176,512.973,243.441,520.055,243.682z M525.186,295.207v-51.525c2.553-0.096,4.48-0.217,5.781-0.361l-0.506,3.83
		c6.021-3.035,11.609-4.553,16.766-4.553c3.324,0,6.166,0.82,8.527,2.457c2.313,1.687,3.758,3.589,4.336,5.709
		c0.578,2.168,0.867,5.685,0.867,10.551v33.893c-1.976,0.096-3.902,0.24-5.781,0.434c0.337-6.021,0.506-10.237,0.506-12.646v-23.053
		c0-4.721-0.675-8.045-2.023-9.973c-1.397-1.975-3.902-2.963-7.516-2.963c-3.855,0-9.082,1.59-15.682,4.77v29.412
		c0,7.709,2.842,12.237,8.527,13.586v1.301C533.207,295.496,528.605,295.207,525.186,295.207z M566.016,295.207v-35.266
		c0-4.866-0.338-8.383-1.012-10.551c-0.627-1.975-2.168-3.733-4.625-5.275c3.275,0.242,5.901,1.373,7.877,3.396
		c1.975,2.072,2.963,6.769,2.963,14.092v16.838c0,4.144,0.24,7.082,0.723,8.816c0.434,1.879,1.445,3.493,3.035,4.842
		c1.541,1.397,3.372,2.289,5.492,2.674v1.301c-1.59-0.145-4.228-0.325-7.913-0.542S566.689,295.207,566.016,295.207z"/>
	<path d="M600.486,248.162c-5.107,5.251-7.66,12.719-7.66,22.402c0,8.094,2.553,15.489,7.66,22.186
		c-9.105-5.637-13.658-13.321-13.658-23.053C586.828,259.146,591.381,251.968,600.486,248.162z M640.666,207.838v87.369
		c-2.746,0.096-4.722,0.24-5.926,0.434c0.145-1.541,0.217-3.035,0.217-4.48c-4.674,3.613-9.636,5.42-14.887,5.42
		c-7.179,0-12.671-2.553-16.477-7.66c-3.902-5.154-5.854-11.249-5.854-18.283c0-7.418,1.975-13.899,5.926-19.439
		c3.95-5.54,10.262-8.311,18.934-8.311c4.721,0,9.009,1.06,12.863,3.18v-23.414c0-4.383-0.65-7.684-1.951-9.9
		c-1.397-2.215-3.83-3.709-7.299-4.48v-1.229C630.982,207.38,635.8,207.646,640.666,207.838z M635.463,270.492V250.98
		c-4.24-2.457-8.504-3.686-12.791-3.686c-6.07,0-10.768,2.048-14.092,6.143c-3.324,4.095-4.986,9.636-4.986,16.621
		c0,6.312,1.541,11.515,4.625,15.609c3.035,4.191,7.058,6.287,12.068,6.287c5.154,0,10.068-2.096,14.742-6.287
		C635.318,281.188,635.463,276.129,635.463,270.492z M648.109,295.207h-2.529v-87.369c1.541,0,3.589-0.12,6.143-0.361
		c-0.578,8.72-0.867,17.441-0.867,26.16v44.805c0,4.096,0.24,7.034,0.723,8.816c0.529,1.928,1.613,3.565,3.252,4.914
		c1.686,1.445,3.709,2.313,6.07,2.602v1.301C655.648,295.496,651.385,295.207,648.109,295.207z"/>
	<path d="M678.316,289.426l-0.289,0.434c-7.275-4.191-10.912-10.768-10.912-19.729c0-3.469,0.65-6.817,1.951-10.045
		c1.301-3.227,4.022-6.479,8.166-9.756l0.361,0.361c-3.035,5.251-4.553,11.563-4.553,18.934
		C673.041,277.285,674.799,283.886,678.316,289.426z M717.629,266.229h-33.531c-0.097,2.41-0.145,3.878-0.145,4.408
		c0,6.263,1.71,11.298,5.131,15.104c3.42,3.758,7.877,5.637,13.369,5.637c4.528,0,8.623-1.229,12.285-3.686
		c3.661-2.457,6.552-5.757,8.672-9.9h3.107c-4.433,12.671-12.863,19.006-25.293,19.006c-7.468,0-13.225-2.602-17.271-7.805
		c-4.047-5.154-6.07-11.682-6.07-19.584c0-7.612,1.879-13.947,5.637-19.006c3.709-5.01,8.551-7.516,14.525-7.516
		c4.817,0,9.057,1.807,12.719,5.42C714.377,251.873,716.665,257.846,717.629,266.229z M684.676,260.881h25.727
		c-0.241-3.469-1.373-6.551-3.396-9.25c-2.12-2.698-5.155-4.047-9.105-4.047c-3.518,0-6.48,1.229-8.889,3.686
		C686.603,253.727,685.157,256.931,684.676,260.881z M728.83,266.229h-6.432c-0.241-8.768-2.529-15.2-6.865-19.295
		C723.289,250.162,727.722,256.593,728.83,266.229z"/>
</g>
</svg>
