<?xml version="1.0" encoding="utf-8"?>
<!-- Generator: Adobe Illustrator 16.0.0, SVG Export Plug-In . SVG Version: 6.00 Build 0)  -->
<!DOCTYPE svg PUBLIC "-//W3C//DTD SVG 1.1//EN" "http://www.w3.org/Graphics/SVG/1.1/DTD/svg11.dtd">
<svg version="1.1" id="Calque_1" xmlns="http://www.w3.org/2000/svg" xmlns:xlink="http://www.w3.org/1999/xlink" x="0px" y="0px"
	 width="960px" height="560px" viewBox="0 0 960 560" enable-background="new 0 0 960 560" xml:space="preserve">
<path d="M352.676,60.692c-36.248,51.402-54.369,116.472-54.369,195.202c0,18.427,2.072,44.717,6.242,78.887
	c4.157,33.578,16.936,68.482,38.33,104.724C285.231,394.346,256.415,332.848,256.415,255c0-47.832,9.653-88.093,28.968-120.777
	C304.397,102.137,326.831,77.623,352.676,60.692z M644.594,244.315v225.503c-47.237,19.317-87.942,28.968-122.113,28.968
	c-57.646,0-104.14-19.013-139.498-57.052c-17.528-19.294-30.682-43.666-39.443-73.088c-8.764-29.415-13.146-63.573-13.146-102.501
	c0-169.952,71.156-254.932,213.474-254.932c52.294,0,102.953,8.767,151.98,26.299c0,27.628,0.447,48.876,1.339,63.734
	c0.895,12.777,1.336,28.374,1.336,46.795h-8.906c-7.13-32.086-23.922-57.336-50.366-75.762
	c-27.037-18.424-59.271-27.628-96.713-27.628c-115.584,0-173.365,69.379-173.365,208.129c0,140.832,49.169,211.247,147.521,211.247
	c39.212,0,67.002-9.354,83.343-28.084c5.346-9.797,8.021-27.916,8.021-54.363v-60.165c0-43.079-15.747-67.891-47.242-74.425v-8.024
	c10.992,0.598,26.303,1.493,45.904,2.674C621.872,242.826,634.496,243.712,644.594,244.315z M677.581,459.124V244.315
	c14.262-0.595,27.331-1.489,39.216-2.679c19.312-1.782,31.933-2.677,37.886-2.677v8.023c-27.037,10.995-40.556,40.113-40.556,87.352
	v113.19c-2.078,0.312-7.875,2.094-17.381,5.355c-4.753,1.179-8.621,2.375-11.586,3.563
	C682.187,457.646,679.65,458.533,677.581,459.124z"/>
</svg>
